<svg id="Capa_1" enable-background="new 0 0 512 512" height="512" viewBox="0 0 512 512" width="512" xmlns="http://www.w3.org/2000/svg"><g><path fill="#474343" d="m512 0h-512v512h512zm-141.213 30-30 30h-169.574l-30-30zm-60 60-54.787 54.787-54.787-54.787zm-280.787-60h68.787l136 136-69.253 69.253-135.534-136.437zm114.32 226.466-54.32 54.321v-109.003zm-114.32-115.082 30 30.2v169.203l-30 30zm111.213 340.616 30-30h169.574l30 30zm60-60 54.787-54.787 54.787 54.787zm280.787 60h-68.787l-136-136 69.253-69.253 135.534 136.437zm-114.32-226.466 54.32-54.32v109.003zm114.32 115.082-30-30.2v-169.203l30-30zm0-271.829-383.213 383.213h-68.787v-68.787l383.213-383.213h68.787z"/><path fill="#474343" d="m422 60h30v30h-30z"/><path fill="#474343" d="m60 60h30v30h-30z"/><path fill="#474343" d="m422 422h30v30h-30z"/><path fill="#474343" d="m60 422h30v30h-30z"/></g></svg>